<svg width="36" height="36" viewBox="0 0 36 36" fill="none" xmlns="http://www.w3.org/2000/svg">
<path d="M18.0006 1.50098C18.6727 1.50098 19.2233 1.92637 19.437 2.5648C19.4839 2.7059 19.5062 2.95551 19.5038 3.31363C19.5001 3.83348 19.4991 4.25652 19.501 4.58277C19.501 4.59198 19.5043 4.6009 19.5102 4.60796C19.5161 4.61503 19.5243 4.6198 19.5334 4.62145C21.436 4.92613 23.1022 5.64988 24.5319 6.7927C26.6602 8.49426 28.0081 10.875 28.4061 13.5807C28.4848 14.116 28.5167 15.0598 28.5017 16.4121C28.4998 16.6217 28.4996 18.9326 28.501 23.345C28.501 23.3559 28.5032 23.3667 28.5074 23.3767C28.5117 23.3867 28.5178 23.3958 28.5256 23.4033C29.8006 24.683 30.5199 25.4018 30.6835 25.5598C31.2552 26.1118 31.5463 26.4605 31.4879 27.158C31.4394 27.7374 31.0154 28.2394 30.4712 28.4243C30.3123 28.4782 29.9996 28.5047 29.5332 28.5038C28.688 28.5014 24.8438 28.5003 18.0006 28.5003C11.1573 28.5003 7.31305 28.5012 6.4679 28.5031C6.00149 28.5045 5.68883 28.4782 5.52993 28.4243C4.98571 28.2394 4.56173 27.7374 4.51321 27.158C4.45485 26.4605 4.74594 26.1118 5.31758 25.5598C5.48118 25.4018 6.20047 24.683 7.47547 23.4033C7.48326 23.3958 7.48945 23.3867 7.49368 23.3767C7.49791 23.3667 7.50009 23.3559 7.50008 23.345C7.50149 18.9326 7.50126 16.6217 7.49938 16.4121C7.48438 15.0598 7.51626 14.116 7.59501 13.5807C7.99297 10.875 9.34087 8.49426 11.4692 6.7927C12.8989 5.64988 14.5651 4.92613 16.4677 4.62145C16.4768 4.6198 16.485 4.61503 16.4909 4.60796C16.4968 4.6009 16.5001 4.59198 16.5001 4.58277C16.502 4.25652 16.501 3.83348 16.4973 3.31363C16.4949 2.95551 16.5172 2.7059 16.5641 2.5648C16.7778 1.92637 17.3284 1.50098 18.0006 1.50098ZM18.0006 25.4993C22.6571 25.4993 25.4363 25.5 26.3382 25.5014C26.3415 25.5015 26.3447 25.5006 26.3475 25.4988C26.3502 25.497 26.3524 25.4943 26.3536 25.4913C26.3548 25.4882 26.3551 25.4849 26.3543 25.4817C26.3536 25.4784 26.3519 25.4755 26.3495 25.4733C25.8917 25.0064 25.4966 24.6844 25.4987 23.9581C25.5043 21.6546 25.5029 18.6673 25.4945 14.9961C25.4853 10.8617 22.1539 7.49934 18.0006 7.49934C13.8472 7.49934 10.5151 10.8617 10.5059 14.9961C10.498 18.6673 10.4968 21.6546 10.5024 23.9581C10.5045 24.6844 10.1094 25.0064 9.65165 25.4733C9.64921 25.4755 9.64751 25.4784 9.64677 25.4817C9.64604 25.4849 9.6463 25.4882 9.64752 25.4913C9.64874 25.4943 9.65087 25.497 9.65362 25.4988C9.65637 25.5006 9.6596 25.5015 9.6629 25.5014C10.5648 25.5 13.344 25.4993 18.0006 25.4993Z" fill="black"/>
<path d="M20.9534 30C20.958 30 20.9625 30.0019 20.9658 30.0051C20.9691 30.0084 20.9709 30.0129 20.9709 30.0176V30.0527C20.9709 30.4388 20.894 30.8211 20.7445 31.1777C20.5951 31.5344 20.376 31.8585 20.0998 32.1315C19.8236 32.4044 19.4958 32.621 19.1349 32.7687C18.7741 32.9165 18.3873 32.9925 17.9967 32.9925H17.9742C17.1854 32.9925 16.4289 32.6828 15.8711 32.1315C15.3134 31.5802 15 30.8324 15 30.0527V30.0176C15 30.0129 15.0019 30.0084 15.0051 30.0051C15.0084 30.0019 15.0129 30 15.0176 30H20.9534Z" fill="black"/>
</svg>
